<mxfile host="app.diagrams.net" modified="2021-12-03T08:51:07.760Z" agent="5.0 (Macintosh; Intel Mac OS X 10_15_7) AppleWebKit/537.36 (KHTML, like Gecko) Chrome/96.0.4664.55 Safari/537.36" etag="WGxWyeZpFMYJI1c529CS" version="15.8.8" type="github">
  <diagram name="Page-1" id="e3a06f82-3646-2815-327d-82caf3d4e204">
    <mxGraphModel dx="1580" dy="764" grid="1" gridSize="10" guides="1" tooltips="1" connect="1" arrows="1" fold="1" page="1" pageScale="1.5" pageWidth="1169" pageHeight="826" background="none" math="0" shadow="0">
      <root>
        <mxCell id="0" style=";html=1;" />
        <mxCell id="1" style=";html=1;" parent="0" />
        <mxCell id="wKNWFdTeelvIMUXnJIF_-15" value="" style="verticalLabelPosition=bottom;sketch=0;aspect=fixed;html=1;verticalAlign=top;strokeColor=none;align=center;outlineConnect=0;shape=mxgraph.citrix.laptop_2;" vertex="1" parent="1">
          <mxGeometry x="330" y="678.75" width="116" height="86.5" as="geometry" />
        </mxCell>
        <mxCell id="wKNWFdTeelvIMUXnJIF_-105" value="" style="endArrow=classic;rounded=0;fontColor=#D4E1F5;entryX=0.019;entryY=0.6;entryDx=0;entryDy=0;entryPerimeter=0;verticalAlign=bottom;" edge="1" parent="1">
          <mxGeometry width="50" height="50" relative="1" as="geometry">
            <mxPoint x="760.04" y="614.0000000000002" as="sourcePoint" />
            <mxPoint x="760.0000000000002" y="654" as="targetPoint" />
            <Array as="points">
              <mxPoint x="760" y="654" />
            </Array>
          </mxGeometry>
        </mxCell>
        <mxCell id="wKNWFdTeelvIMUXnJIF_-16" value="" style="shape=actor;whiteSpace=wrap;html=1;" vertex="1" parent="1">
          <mxGeometry x="350" y="677" width="40" height="60" as="geometry" />
        </mxCell>
        <mxCell id="wKNWFdTeelvIMUXnJIF_-19" value="" style="verticalLabelPosition=bottom;sketch=0;aspect=fixed;html=1;verticalAlign=top;strokeColor=none;align=center;outlineConnect=0;shape=mxgraph.citrix.chassis;" vertex="1" parent="1">
          <mxGeometry x="1048" y="641.64" width="97.5" height="125.86" as="geometry" />
        </mxCell>
        <mxCell id="wKNWFdTeelvIMUXnJIF_-20" value="client" style="rounded=0;whiteSpace=wrap;html=1;" vertex="1" parent="1">
          <mxGeometry x="360" y="783.5" width="80" height="24.14" as="geometry" />
        </mxCell>
        <mxCell id="wKNWFdTeelvIMUXnJIF_-21" value="server" style="rounded=0;whiteSpace=wrap;html=1;" vertex="1" parent="1">
          <mxGeometry x="1048" y="781" width="80" height="24.14" as="geometry" />
        </mxCell>
        <mxCell id="wKNWFdTeelvIMUXnJIF_-22" value="user" style="text;html=1;strokeColor=none;fillColor=none;align=center;verticalAlign=middle;whiteSpace=wrap;rounded=0;" vertex="1" parent="1">
          <mxGeometry x="340" y="707" width="60" height="30" as="geometry" />
        </mxCell>
        <mxCell id="wKNWFdTeelvIMUXnJIF_-137" style="edgeStyle=orthogonalEdgeStyle;rounded=0;orthogonalLoop=1;jettySize=auto;html=0;entryX=0.5;entryY=0;entryDx=0;entryDy=0;fontColor=#B266FF;" edge="1" parent="1" source="wKNWFdTeelvIMUXnJIF_-24" target="wKNWFdTeelvIMUXnJIF_-28">
          <mxGeometry relative="1" as="geometry" />
        </mxCell>
        <mxCell id="wKNWFdTeelvIMUXnJIF_-142" value="" style="edgeStyle=orthogonalEdgeStyle;rounded=0;orthogonalLoop=1;jettySize=auto;html=0;fontColor=#99CCFF;" edge="1" parent="1" source="wKNWFdTeelvIMUXnJIF_-24" target="wKNWFdTeelvIMUXnJIF_-140">
          <mxGeometry relative="1" as="geometry" />
        </mxCell>
        <mxCell id="wKNWFdTeelvIMUXnJIF_-24" value="&lt;span style=&quot;color: rgb(0 , 0 , 0) ; font-family: &amp;#34;helvetica&amp;#34; ; font-size: 12px ; font-style: normal ; font-weight: 400 ; letter-spacing: normal ; text-align: center ; text-indent: 0px ; text-transform: none ; word-spacing: 0px ; background-color: rgb(248 , 249 , 250) ; display: inline ; float: none&quot;&gt;Request&lt;br&gt;localhost:3000/singIn&lt;br&gt;localhost:3000/singUp&lt;br&gt;&lt;/span&gt;" style="ellipse;whiteSpace=wrap;html=1;" vertex="1" parent="1">
          <mxGeometry x="470" y="615" width="120" height="80" as="geometry" />
        </mxCell>
        <mxCell id="wKNWFdTeelvIMUXnJIF_-25" value="controller" style="swimlane;align=center;" vertex="1" parent="1">
          <mxGeometry x="681" y="496.75" width="200" height="116.62" as="geometry" />
        </mxCell>
        <mxCell id="wKNWFdTeelvIMUXnJIF_-118" value="Controller" style="swimlane;fontStyle=1;childLayout=stackLayout;horizontal=1;startSize=30;horizontalStack=0;resizeParent=1;resizeParentMax=0;resizeLast=0;collapsible=1;marginBottom=0;fontColor=#000000;align=center;" vertex="1" parent="wKNWFdTeelvIMUXnJIF_-25">
          <mxGeometry y="-3.38" width="200" height="120" as="geometry" />
        </mxCell>
        <mxCell id="wKNWFdTeelvIMUXnJIF_-119" value="- 요청 응답에 대한 처리" style="text;strokeColor=none;fillColor=none;align=center;verticalAlign=middle;spacingLeft=4;spacingRight=4;overflow=hidden;points=[[0,0.5],[1,0.5]];portConstraint=eastwest;rotatable=0;fontColor=#000000;" vertex="1" parent="wKNWFdTeelvIMUXnJIF_-118">
          <mxGeometry y="30" width="200" height="30" as="geometry" />
        </mxCell>
        <mxCell id="wKNWFdTeelvIMUXnJIF_-120" value="&lt;signUpController&gt;&#xa;&lt;signInController&gt;" style="text;strokeColor=none;fillColor=none;align=center;verticalAlign=middle;spacingLeft=4;spacingRight=4;overflow=hidden;points=[[0,0.5],[1,0.5]];portConstraint=eastwest;rotatable=0;fontColor=#000000;" vertex="1" parent="wKNWFdTeelvIMUXnJIF_-118">
          <mxGeometry y="60" width="200" height="30" as="geometry" />
        </mxCell>
        <mxCell id="wKNWFdTeelvIMUXnJIF_-121" value="- 키에러, 빈값 에러 처리" style="text;strokeColor=none;fillColor=none;align=center;verticalAlign=middle;spacingLeft=4;spacingRight=4;overflow=hidden;points=[[0,0.5],[1,0.5]];portConstraint=eastwest;rotatable=0;fontColor=#000000;" vertex="1" parent="wKNWFdTeelvIMUXnJIF_-118">
          <mxGeometry y="90" width="200" height="30" as="geometry" />
        </mxCell>
        <mxCell id="wKNWFdTeelvIMUXnJIF_-26" value="service" style="swimlane;" vertex="1" parent="1">
          <mxGeometry x="679" y="651" width="200" height="150" as="geometry" />
        </mxCell>
        <mxCell id="wKNWFdTeelvIMUXnJIF_-46" value="- 서비스 비즈니스 로직 처리" style="text;html=1;align=center;verticalAlign=middle;resizable=0;points=[];autosize=1;strokeColor=none;fillColor=none;" vertex="1" parent="wKNWFdTeelvIMUXnJIF_-26">
          <mxGeometry x="21" y="24" width="150" height="20" as="geometry" />
        </mxCell>
        <mxCell id="wKNWFdTeelvIMUXnJIF_-47" value="- 회원가입 시 이메일 중복&amp;nbsp; 확인&lt;span style=&quot;color: rgba(0 , 0 , 0 , 0) ; font-family: monospace ; font-size: 0px&quot;&gt;%3CmxGraphModel%3E%3Croot%3E%3CmxCell%20id%3D%220%22%2F%3E%3CmxCell%20id%3D%221%22%20parent%3D%220%22%2F%3E%3CmxCell%20id%3D%222%22%20value%3D%22-%20%EC%9A%94%EC%B2%AD%20%EC%9D%91%EB%8B%B5%EC%97%90%20%EB%8C%80%ED%95%9C%20%EC%B2%98%EB%A6%AC%22%20style%3D%22text%3Bhtml%3D1%3Balign%3Dcenter%3BverticalAlign%3Dmiddle%3Bresizable%3D0%3Bpoints%3D%5B%5D%3Bautosize%3D1%3BstrokeColor%3Dnone%3BfillColor%3Dnone%3B%22%20vertex%3D%221%22%20parent%3D%221%22%3E%3CmxGeometry%20x%3D%22650%22%20y%3D%22580%22%20width%3D%22130%22%20height%3D%2220%22%20as%3D%22geometry%22%2F%3E%3C%2FmxCell%3E%3C%2Froot%3E%3C%2FmxGraphModel%3E&lt;/span&gt;" style="text;html=1;align=center;verticalAlign=middle;resizable=0;points=[];autosize=1;strokeColor=none;fillColor=none;" vertex="1" parent="wKNWFdTeelvIMUXnJIF_-26">
          <mxGeometry x="18" y="58" width="160" height="20" as="geometry" />
        </mxCell>
        <mxCell id="wKNWFdTeelvIMUXnJIF_-52" value="- 가입 성공 시 비밀번호 해쉬화&amp;nbsp;&lt;span style=&quot;color: rgba(0 , 0 , 0 , 0) ; font-family: monospace ; font-size: 0px&quot;&gt;%3CmxGraphModel%3E%3Croot%3E%3CmxCell%20id%3D%220%22%2F%3E%3CmxCell%20id%3D%221%22%20parent%3D%220%22%2F%3E%3CmxCell%20id%3D%222%22%20value%3D%22-%20%EC%9A%94%EC%B2%AD%20%EC%9D%91%EB%8B%B5%EC%97%90%20%EB%8C%80%ED%95%9C%20%EC%B2%98%EB%A6%AC%22%20style%3D%22text%3Bhtml%3D1%3Balign%3Dcenter%3BverticalAlign%3Dmiddle%3Bresizable%3D0%3Bpoints%3D%5B%5D%3Bautosize%3D1%3BstrokeColor%3Dnone%3BfillColor%3Dnone%3B%22%20vertex%3D%221%22%20parent%3D%221%22%3E%3CmxGeometry%20x%3D%22650%22%20y%3D%22580%22%20width%3D%22130%22%20height%3D%2220%22%20as%3D%22geometry%22%2F%3E%3C%2FmxCell%3E%3C%2Froot%3E%3C%2FmxGraphModel%3E&lt;/span&gt;" style="text;html=1;align=center;verticalAlign=middle;resizable=0;points=[];autosize=1;strokeColor=none;fillColor=none;" vertex="1" parent="wKNWFdTeelvIMUXnJIF_-26">
          <mxGeometry x="18" y="77" width="160" height="20" as="geometry" />
        </mxCell>
        <mxCell id="wKNWFdTeelvIMUXnJIF_-53" value="-로그인 시 인증 과정" style="text;html=1;align=center;verticalAlign=middle;resizable=0;points=[];autosize=1;strokeColor=none;fillColor=none;" vertex="1" parent="wKNWFdTeelvIMUXnJIF_-26">
          <mxGeometry x="44" y="111" width="110" height="20" as="geometry" />
        </mxCell>
        <mxCell id="wKNWFdTeelvIMUXnJIF_-54" value="&amp;nbsp; -로그인 성공 시 토큰 발급" style="text;html=1;align=center;verticalAlign=middle;resizable=0;points=[];autosize=1;strokeColor=none;fillColor=none;" vertex="1" parent="wKNWFdTeelvIMUXnJIF_-26">
          <mxGeometry x="21" y="130" width="140" height="20" as="geometry" />
        </mxCell>
        <mxCell id="wKNWFdTeelvIMUXnJIF_-80" value="&amp;lt;signUpService&amp;gt;" style="text;html=1;align=center;verticalAlign=middle;resizable=0;points=[];autosize=1;strokeColor=none;fillColor=none;" vertex="1" parent="wKNWFdTeelvIMUXnJIF_-26">
          <mxGeometry x="42" y="41" width="110" height="20" as="geometry" />
        </mxCell>
        <mxCell id="wKNWFdTeelvIMUXnJIF_-79" value="&amp;lt; signInService&amp;gt;&lt;span style=&quot;color: rgba(0 , 0 , 0 , 0) ; font-family: monospace ; font-size: 0px&quot;&gt;%3CmxGraphModel%3E%3Croot%3E%3CmxCell%20id%3D%220%22%2F%3E%3CmxCell%20id%3D%221%22%20parent%3D%220%22%2F%3E%3CmxCell%20id%3D%222%22%20value%3D%22-%20%EC%9A%94%EC%B2%AD%20%EC%9D%91%EB%8B%B5%EC%97%90%20%EB%8C%80%ED%95%9C%20%EC%B2%98%EB%A6%AC%22%20style%3D%22text%3Bhtml%3D1%3Balign%3Dcenter%3BverticalAlign%3Dmiddle%3Bresizable%3D0%3Bpoints%3D%5B%5D%3Bautosize%3D1%3BstrokeColor%3Dnone%3BfillColor%3Dnone%3B%22%20vertex%3D%221%22%20parent%3D%221%22%3E%3CmxGeometry%20x%3D%22650%22%20y%3D%22580%22%20width%3D%22130%22%20height%3D%2220%22%20as%3D%22geometry%22%2F%3E%3C%2FmxCell%3E%3C%2Froot%3E%3C%2FmxG&lt;/span&gt;" style="text;html=1;align=center;verticalAlign=middle;resizable=0;points=[];autosize=1;strokeColor=none;fillColor=none;" vertex="1" parent="wKNWFdTeelvIMUXnJIF_-26">
          <mxGeometry x="43" y="93" width="100" height="20" as="geometry" />
        </mxCell>
        <mxCell id="wKNWFdTeelvIMUXnJIF_-27" value="models" style="swimlane;startSize=20;" vertex="1" parent="1">
          <mxGeometry x="679" y="840" width="201" height="140" as="geometry" />
        </mxCell>
        <mxCell id="wKNWFdTeelvIMUXnJIF_-82" value="&amp;lt;signUpDao&amp;gt;" style="text;html=1;align=center;verticalAlign=middle;resizable=0;points=[];autosize=1;strokeColor=none;fillColor=none;" vertex="1" parent="wKNWFdTeelvIMUXnJIF_-27">
          <mxGeometry x="53" y="46" width="90" height="20" as="geometry" />
        </mxCell>
        <mxCell id="wKNWFdTeelvIMUXnJIF_-83" value="&amp;lt;signUpDao&amp;gt;" style="text;html=1;align=center;verticalAlign=middle;resizable=0;points=[];autosize=1;strokeColor=none;fillColor=none;" vertex="1" parent="wKNWFdTeelvIMUXnJIF_-27">
          <mxGeometry x="51.5" y="97" width="90" height="20" as="geometry" />
        </mxCell>
        <mxCell id="wKNWFdTeelvIMUXnJIF_-136" style="edgeStyle=orthogonalEdgeStyle;rounded=0;orthogonalLoop=1;jettySize=auto;html=0;entryX=1;entryY=0.5;entryDx=0;entryDy=0;fontColor=#B266FF;" edge="1" parent="1" source="wKNWFdTeelvIMUXnJIF_-28" target="wKNWFdTeelvIMUXnJIF_-69">
          <mxGeometry relative="1" as="geometry">
            <Array as="points">
              <mxPoint x="660" y="405" />
              <mxPoint x="660" y="760" />
            </Array>
          </mxGeometry>
        </mxCell>
        <mxCell id="wKNWFdTeelvIMUXnJIF_-28" value="Router" style="swimlane;fontStyle=1;childLayout=stackLayout;horizontal=1;startSize=30;horizontalStack=0;resizeParent=1;resizeParentMax=0;resizeLast=0;collapsible=1;marginBottom=0;" vertex="1" parent="1">
          <mxGeometry x="681" y="360" width="199" height="90" as="geometry" />
        </mxCell>
        <mxCell id="wKNWFdTeelvIMUXnJIF_-31" value="&lt;signUpRouter&gt;" style="text;strokeColor=none;fillColor=none;align=center;verticalAlign=middle;spacingLeft=4;spacingRight=4;overflow=hidden;points=[[0,0.5],[1,0.5]];portConstraint=eastwest;rotatable=0;" vertex="1" parent="wKNWFdTeelvIMUXnJIF_-28">
          <mxGeometry y="30" width="199" height="30" as="geometry" />
        </mxCell>
        <mxCell id="wKNWFdTeelvIMUXnJIF_-30" value="&lt;signInRouter&gt;" style="text;strokeColor=none;fillColor=none;align=center;verticalAlign=middle;spacingLeft=4;spacingRight=4;overflow=hidden;points=[[0,0.5],[1,0.5]];portConstraint=eastwest;rotatable=0;" vertex="1" parent="wKNWFdTeelvIMUXnJIF_-28">
          <mxGeometry y="60" width="199" height="30" as="geometry" />
        </mxCell>
        <mxCell id="wKNWFdTeelvIMUXnJIF_-38" value="" style="curved=1;endArrow=classic;html=1;rounded=0;" edge="1" parent="1">
          <mxGeometry width="50" height="50" relative="1" as="geometry">
            <mxPoint x="390" y="670" as="sourcePoint" />
            <mxPoint x="480" y="610" as="targetPoint" />
            <Array as="points">
              <mxPoint x="480" y="660" />
              <mxPoint x="430" y="610" />
            </Array>
          </mxGeometry>
        </mxCell>
        <mxCell id="wKNWFdTeelvIMUXnJIF_-69" value="&lt;span style=&quot;color: rgb(0 , 0 , 0) ; font-family: &amp;#34;helvetica&amp;#34; ; font-size: 12px ; font-style: normal ; font-weight: 400 ; letter-spacing: normal ; text-align: center ; text-indent: 0px ; text-transform: none ; word-spacing: 0px ; background-color: rgb(248 , 249 , 250) ; display: inline ; float: none&quot;&gt;Response&lt;br&gt;회원 가입 및 &lt;br&gt;로그인에 대한 응답&lt;br&gt;&lt;/span&gt;" style="ellipse;whiteSpace=wrap;html=1;" vertex="1" parent="1">
          <mxGeometry x="468" y="720" width="124" height="80" as="geometry" />
        </mxCell>
        <mxCell id="wKNWFdTeelvIMUXnJIF_-91" value="" style="verticalLabelPosition=bottom;sketch=0;aspect=fixed;html=1;verticalAlign=top;strokeColor=none;align=center;outlineConnect=0;shape=mxgraph.citrix.database;" vertex="1" parent="1">
          <mxGeometry x="1048" y="851" width="102" height="120" as="geometry" />
        </mxCell>
        <mxCell id="wKNWFdTeelvIMUXnJIF_-92" value="DataBase" style="rounded=0;whiteSpace=wrap;html=1;" vertex="1" parent="1">
          <mxGeometry x="1056.75" y="991" width="80" height="24.14" as="geometry" />
        </mxCell>
        <mxCell id="wKNWFdTeelvIMUXnJIF_-99" value="" style="endArrow=classic;html=1;rounded=0;fontColor=#D4E1F5;entryX=0.019;entryY=0.6;entryDx=0;entryDy=0;entryPerimeter=0;" edge="1" parent="1">
          <mxGeometry width="50" height="50" relative="1" as="geometry">
            <mxPoint x="800" y="653" as="sourcePoint" />
            <mxPoint x="800.04" y="613.0000000000002" as="targetPoint" />
            <Array as="points">
              <mxPoint x="800" y="653" />
            </Array>
          </mxGeometry>
        </mxCell>
        <mxCell id="wKNWFdTeelvIMUXnJIF_-100" value="" style="endArrow=classic;html=1;rounded=0;fontColor=#D4E1F5;entryX=0.019;entryY=0.6;entryDx=0;entryDy=0;entryPerimeter=0;" edge="1" parent="1">
          <mxGeometry width="50" height="50" relative="1" as="geometry">
            <mxPoint x="799.9999999999998" y="840" as="sourcePoint" />
            <mxPoint x="800.04" y="800.0000000000002" as="targetPoint" />
            <Array as="points">
              <mxPoint x="800" y="840" />
            </Array>
          </mxGeometry>
        </mxCell>
        <mxCell id="wKNWFdTeelvIMUXnJIF_-107" value="" style="endArrow=classic;rounded=0;fontColor=#D4E1F5;entryX=0.019;entryY=0.6;entryDx=0;entryDy=0;entryPerimeter=0;verticalAlign=bottom;" edge="1" parent="1">
          <mxGeometry width="50" height="50" relative="1" as="geometry">
            <mxPoint x="760.0400000000002" y="800.0000000000002" as="sourcePoint" />
            <mxPoint x="760.0000000000005" y="840" as="targetPoint" />
            <Array as="points">
              <mxPoint x="760" y="840" />
            </Array>
          </mxGeometry>
        </mxCell>
        <mxCell id="wKNWFdTeelvIMUXnJIF_-110" value="&lt;font color=&quot;#ff3399&quot;&gt;HTTP&lt;/font&gt;" style="text;strokeColor=none;fillColor=none;html=1;fontSize=24;fontStyle=1;verticalAlign=middle;align=center;fontColor=#D4E1F5;" vertex="1" parent="1">
          <mxGeometry x="480" y="580" width="100" height="40" as="geometry" />
        </mxCell>
        <mxCell id="wKNWFdTeelvIMUXnJIF_-123" value="" style="endArrow=classic;html=1;rounded=0;fontColor=#D4E1F5;entryX=0.019;entryY=0.6;entryDx=0;entryDy=0;entryPerimeter=0;" edge="1" parent="1">
          <mxGeometry width="50" height="50" relative="1" as="geometry">
            <mxPoint x="799.9999999999998" y="490" as="sourcePoint" />
            <mxPoint x="800.04" y="450.0000000000002" as="targetPoint" />
            <Array as="points">
              <mxPoint x="800" y="490" />
            </Array>
          </mxGeometry>
        </mxCell>
        <mxCell id="wKNWFdTeelvIMUXnJIF_-124" value="" style="endArrow=classic;rounded=0;fontColor=#D4E1F5;entryX=0.019;entryY=0.6;entryDx=0;entryDy=0;entryPerimeter=0;verticalAlign=bottom;" edge="1" parent="1">
          <mxGeometry width="50" height="50" relative="1" as="geometry">
            <mxPoint x="760.0400000000002" y="451.0000000000002" as="sourcePoint" />
            <mxPoint x="760.0000000000005" y="491" as="targetPoint" />
            <Array as="points">
              <mxPoint x="760" y="491" />
            </Array>
          </mxGeometry>
        </mxCell>
        <mxCell id="wKNWFdTeelvIMUXnJIF_-125" value="&lt;font color=&quot;#cc6600&quot;&gt;Layerd Pattern&lt;/font&gt;" style="text;strokeColor=none;fillColor=none;html=1;fontSize=24;fontStyle=1;verticalAlign=middle;align=center;fontColor=#000000;" vertex="1" parent="1">
          <mxGeometry x="737" y="293" width="103" height="40" as="geometry" />
        </mxCell>
        <mxCell id="wKNWFdTeelvIMUXnJIF_-132" value="" style="shape=image;verticalLabelPosition=bottom;labelBackgroundColor=#ffffff;verticalAlign=top;aspect=fixed;imageAspect=0;image=data:image/png,iVBORw0KGgoAAAANSUhEUgAAAKAAAACgCAYAAACLz2ctAAAWtklEQVR42uyde3BcV7Xmv2+f0y89uq1utd6ynVi2ZScEE8jLSZwHmYRAGOIw4xg7kwyQB0MIBBhqaqamhv+mGIq5VTdA5cK91C3g1uWRcHkFLhWI6yYxkCd5OfFbfsSWLUvqVktqdau7z163uluOZRNbLavVfVra3x92yuk+Z/c+v7PWXnuvvbaCkVEVZQA0MgAaGQCNjAyARgZAIyMDoJEB0MjIAGhkADQyMgAaGQCNjAyARgZAIyMDoJEB0MjIAGhU+7JNF5yX/C2dPeuU8mwU4hKAtkC/lcs6T8Ss1HYcOZIyXVSaaLpgdgqHe7o89d7/RSWbCRWc7kVEZEyET6TS6a+ODu7fZ3prZlmmC0pXQ0N7sy/U+Igit5Csy7/AJ1UYzyjlB2SNx2OvtXxL/jSZjMVNr5kxYNn6qj685FMW5CNK0TMdPEyROAWhDfAGn8/+snnBDYBl05Loqvcoqv8KMjDjuIawSW5s7FjeY3rOAFgGtdf5/PZ/F0HPdKt3dgBJRbYEVOA/mz42AM5Z0c5g3u1uJOEpObojLcviJ5o7LjBW0AB4/gqEO7uUbT1Msr4E43cmhqssK3CHmW0wAJ6vfI11wQcpvOw8v58fC94WDnd2mq40AM5aTR29lyqlts7G9Z7hhvOmb50VaLzRWEED4OwUDIZ9Nh4m0QVAzucSIhAQ9crilrroslbTqQbAkvultaHrY4C65cz5vtlZwOL0IMGr6vy+DaZbDYAlKdKxeqWy8SDJkIjIXK4lECHZaMHahEik0fSuAXDGwMNW6gEA63jShM1BfGe1Tl0f9TavN91rADynWrpX30LFzSDL1jd5K0qiSdnqHqArYHrZAPjuauyNAOphkq1ztXxnRMNTiyPqxpaOhnWmow2A76q2JbhHKXUly2j9zrCFzcriVpOkYAD868AjsqwXVA8S8M/XPQpgk3c0ta7oNT1uAJwuv11f90WSy8vpes/iitt9Hs8dpssNgKcCj66VtxK8c/5c72kQAsq6M9DZ2WV63gAIf9OKbtL+HMngXOf8SocQvY1svNP0v+kAT6jBey+prsa0rOZK9DsVN9fVRVsMgItY0fZVV5CFZANfJe/LYjSytj4S/dBiT1JYtNMBjY0dEV9d/VepcHVxju78rZ/WktUieyH8i4jOXyd47vFk3tPTpkhI/I2/yyZHksYCLi6xLhS6HUpuJTmnl7CwyiHY5mT1XWOTE/8lk85sFY1nzj2cPJmlwPfXW4ErjQVcZAq1Llvu8fj+H8kVZRj2JdOO/kqsf9cz2WQ8mUrGjtTVR0eoeBtJ70xjUBBOchS/ByYyxgIuDtkBj/8BQN5fjphDgHhKMm9M/7fU+Mh2AK+WMBZUirgl2tV0rXHBi0TN3WuugmXfV7aIV8vr6f7R0zagj431DwP6uzPN6hSmfchmRXvLYk1SWGQA9gQ9iv+DQKQcV8vz5QC7gMG/CiImc4l/E5E955pbnHoJ8n9cE+4MXGIAXOCuN9JtfUKE/6EceX5TCDoi8ta7pezH+/uPasjPRUTP4IbzMUmXrey7AXgNgAtUSzovWOuh/Xml6C2P9Svs+EgpS3aedXYmm3kMgrfPZQWLuYK0SHy0qfXCVQbABan2Oq/y3wfI6nIutwlkZHwideBs/3/o2P58cLLtXJuaTlU3YofX6/mPi21ielEAGO0M3WqRm5VSVlmX28g9E4PpsXN8IiPUP9eC2EzWtDgZbt0diXS3GwAXkJqaVnRbFj8HMlLO6+YdsNb6LWBg4lyfGxgbeJaQV85leHlKq+yG+o2LyQoudADpbfBsBQtZzuV9qJQMgDdn3DMcjye04GeATMxsUEmKdXcw2NVkAFwAau1ceTmoPk3AX/ZUK8GY5JwdpXxUp9LbNLh7pjZI8QPv8Sxp/IgBsNYVDgehPJ8jsLx80y6ngRJ3JicOlPL5oaG+A+LgXwTIzWQBlULA1ry7sbEjYgCsYbXUtX2U5MdI2vOTaMq+WMwptQRvTjvp31Kkf6a2EIRSvNwTCl5nAKxR1TUvbVcWvkSiodzWb8oCaoreDxwruRr+0LH9b2ni9yXVmSEavUrd2dTUFDIA1p68wbq6+wium8cM54wjsmuWRYvSkpWfCDBSSjAC8INWXfRqA2CNKdK6ej1gfXZ+NxhxTIvsmO23TvTv/CNE/lTSHYgmW1lbgfY6A2CNKBRa2uTxWQ+TaJ2vDUbFJTgZ0RPZvvP4ekpDfqq1TJb0bKiuDbc2XGwArA1ZnsbARgA3zMe473TrJAfi8cR5nQFyIpb9HQoZNDO64fxfbR6Pd3MhcdUA6PJZl7ae1ZayvkByXkugFeyfYB8wPHFeFxjfN6i1fryUOUESHlJuj3asvMgA6G4FvF7vAwpYO+93IjKi9R4UUgHPT05Kz5gl805dTLIbln37Ql2eWxAAhtt7ryWwmUrZ8723lyLjorlzLtcYHt69X2v5bTGl9dzWloRtkRub2i/sNgC6UHXRZW0ej/oKyGgl7idAfHIitXeOl8mJdn4405TMtKHsWp/Ht8kA6EI1+us/SeLqCrqo3Ql7fHiuFznRP/IaBU/PlDGdd9NKKVuEn0BoaZMB0EVq7uh5HxXuI+ivRFWN4pBN3sTwcHruVxtIOtr5mQiSM0TDhR9GxbWRUODDC20sWMMARhssj/fLEHRXqqaLCDJOrpCCny3H9XQ6tQ2id5QyZUnCb8G6t6GhrdkA6AJFuppvovCjxeNRKyRiXLRzoFyXGxo6PKAFv82DPfOtCQv4QF1jcL0BsNpzLuHOLlvxSySCFb2xID6ezh0q4xV1Npv5OSB7S1q4IRvgse9YSMc91CKA3mB9410Er6hcNbWTVkjvS48kynoKenxg/x4NPJWHcWb+8laQt7bXRa8yAFZJTR2rL1O0/lu5tlfOygASrwGxVJkvm81ks48L5ESJb0GzVtY9aF8YSQq1BWAotMRrqYdBLK1UNdNpEbDjaPVWuQKQ05hKO6/DKVTUkhKsICnYENYLI0mhlgBULaH2TUQ5KxvMZviHUcnpvvm4djzel3Byzj9ihikZnMzGgbTZdqGSgscAWCEFu1ZcqEQ9QFW5Ws5nPPqR8VT68HxdPZ0ce1FDXp0xZb945o2lLPWhJS0XrDEAVijw8MH7IMiL53J65dziVexNq/IGINNVqKilnZ/mXf3MbrgwK9Pp9Qdqfg9xTQAY7li5wbLUZrI6xXvyRklTXkGs7AHIaZrMZX4FnjtL5lQsAp8CN4VaVl5gAJxXRRs8lv1lAi3ne3B0eRjUu+YjAJmukeMHDonmH2ZaH8apJboen8+63QA4n4FHd+R+kjedHP5UhT5gxMnotypxr5xk/x6C4VKCkWLCqrWllvcQuxrAcLinV1E9QNKuFnxTTzseS473VeJWw0f2vAHIU6UEI1PjwYu8TQ0fNgCWXWsbPPWeL5apkPhctQ/jxxIVuldaHP0jERktxQ2T9Nuw70VDe7MBsHxic4e+XpG3V7uSf3HaDa9hhrIa5VRyVP4slJdLDEbyIfGlkcbGawyAZVKoddly27K+NFVSTarcnDwFOyvZjvHxPUNwnB8BmChxLNjg8dibgdpLUnAjgJbPW7cFxPqqzfmdHoDEtePsqfR9M07uSRHZX6IbzlvCD7Z3R680AM418Ohcc5kiP6UUfdVZ8Tjd/Yoglsyk+ip97/ixvn4R+YWI5EqxgiCbtVKbANQZAM9b0Qaf4oMEl6Oyp1ee9dkS0jcxxHgV7p3LZZ0nROR4qVYQwluCbRdcZAA8X/y6Ix+Hwm2FhSZ3KB+B/AU4VJVjtIaPj72pUZiYLqmpBDoCnsCmWjruwTUANnWs6FZQnwfompJkIpJ1nMIeEF2dFhybYK6wcakEC1zIELJIbmytoeMe3AKgx2t57ydxiRsCj2lTHAlo3VfNNgwkj/1RIM8JStq4lNdSeny31so6vysaGepYtYFK3T/Xo1PLHYCAHHYm9cGqNiSRiGvBYyJS0lbQwvKchU2hlpXLDYClOd+Q3+P5AoGoWyzftPFfX8yXjFW7IePJ0Sch2FMagISIusTvszYZAEu4f7SrbSsFN7uwb7SGfhXHjk1WuyGp2JF+QB4rJUtmygp6QfWfUANJClUFcEnLBRdbzLteeF1m/fLmLyOO2jmXKljlbE42l3pMBIMl7hvJ/7W2rTF4mwHwbGptrQ/4A58FsdZt8E0ROKqd7GG3NGe4/2AftPOvpVjBwvIc4BUbnwbcXU+magA22+HrBNio6L6NNVKcgY5pJQdc1KwsoH8KIlFKqlbxXDz1gUhH4FoD4Bnyd6zotiz1EMmoVD/Z4F1NiBIcjOXG4m5q1vGJoT9S5MVS3HBhdQ70eyx1J9rduzxXDQBVyPZsIXG9m+b8zgxARPQbGBiYdFWrYrFREfwSYKqUceDUDrqbWzxr1hsAT7re9t51pHXfvJzfVjYXLFmtsaOSOYClKpHM/rpQIq40Q543gxEl2AzAZwAEvLaHDxFYUY3N5bMZ84tUdwXk7FMy+46K5s+0lmwJVrBYSIG8Kdy18r2LHsBwW08PoG5y86C4aJR5IplN73drE3NO9lcCKfkFIdBZPPQG/kUNoLI8ywG0utfwnfTAzuGJwUMjbm3g8LE9B6DxuxKDESGVrahui3as7F3UANqQAFkD9UyKVfCzLm7hZC7r/EIgsdLccGFeqUtZ6sPV3mNTVQAzwoRAUu52wcg64rhlBeSsyqaSr0PkzyXGcVJcbbJvD7Uu6160AE4gs1sEh90a/U5pRBw56HYjPTp6JA6H3weklBObpg69wXu8nvrb3FRPpqIApvv3H4Xg8VIK8FTRBg4kPel9cL9kbGT4GRHsmEUw4rfIrfX1F0YX6zSMzoynvwvBC261giT2pt5+e7gGAEQyOTCoRf+41L6csoLrgkHfzYsVQMTjfYfFkUcgMuxGBh1HXnHjBPTZrGAqlXlCRPaXHhHDJzY+5ZbT2KuyFjzQP/QbEflJKccTVDYA0bmM1q+5PQCZrrGhvj4R/HIWFbXy/3GVpyF6/aIFEBgcn8xkHgXlTVe5YsFINpc5hNqSA519jIXVG0Fp0zL0W7TuQWtr/SIFsHA8wU7k8B0RjLoFQi0cTKYmj9YYgBg4mnodwmdLLR9SSNuHuj5iN1+2aAHMP+/Jo+kfQ+NJ9wQgej/G+hOoOR1JCXM/gWC85Aev2OS19CernaRQ1ZT8OPoS2Vzu6xC87RIf/FItjf9Oi4jjY9sEsrNUbyLFVJkbm7pWr1q0AKKw+3/3S1qcR7WWbDVdcfGB4GW4MUG2lGBkrD+utWybhRvOByTtPqq7qllJwRX7ggfiI98TkWeqCiAkkUnXXAAyXR4qLpnVw1fKAtXG5o6eixY1gBg/PpjTuf8LcLAaEIrk+eNgPJ05WovghUJLm1o7Vt0O8NbzWGZbpmDfVq0kBddkRqTGho8EgtEWkJcq0q64/QNeSp7Y/70acMEE1noDEX9ruDF6cUO4dYvt9z5EZd+riI7ZJPlOTUxbVGyw/HVPTiYTFU9Bs13UsdnsWOqbvmDgCgGuqfhJmFq/Ur0iRKU9q2C0Z5nXY6+xbLmRElxPygUgwyef42z77CSsAlnl8/jWATi4mAHEyMiBw62Nvd8WWmsJhCtn/5BzFF92HXKR1Y1NFpZ7veoyKLVBQa4C2QkgAAVFqCkrxjmaVDYI0FGVt8plXS4Db8d/3doVuU4s3E+yMmNUjeH5Oohwtiw0N/e2iU9WW5a1gSLrFfm+qVrZilR855UBT7Nicx0Di1I5A2AxJk466cbvst67AVKomlAJ7vtTo1VbAfE1tV/Yquh5r+1VN9LhBiquAuAX5Mdniu86DCyvBxillsMGwCkNDe17Pepd8y3L5tdJNMxvBFyYkD2QTB6oVBUsFQotCyp/oMv28loFXk1iHcGlENTBosWpdql3ha/8vx8ir07E468YAE/JyST7f+QPdtwooj4+z9s3NaB3zmMKVr7t3kD36kh9SvfYfus6Kq7X4MUkIgQD7/bzKrFltfjyyTGtne8kkycGDIDTlEgkRlR9+994iSsUpGu+HogIHKe40VvKCl0k0tDsi7ZrhYttqiuVwtWos1aTDJG0qzn/JUXy8hF/v4j8/8Gju39dtdDexdMOiPfverGlc/V3xLL/DyCe+YFQhnXGKUcRIta3Xhj1eazlFjyXKyXrCXUZKR0A66aykVH15cbCqexyQgR/yjrZ78f69z5dzR2ArgYw7xbTY8lHA0sabybUtfM0BXM0lZ043wDEEw6vbPHWeS4RhWsK9W5QCCCWAMqeOk6w4q71DOi0ACMQHhHInzXwlOT0a0P9uw4C1U8IdjuAGB09EvMFV31NKfaCbCnzwwGEB1OxwGDJXwr3BCP+XLtl+6+DqCsV8QGAywipI5XNUysMVbNyeYsmhSNf5Q0gb+lyz06kU7tSw4W9Lq4quOR6APMaPLJnW2v32h9Qy0NK0VfmAOQwsO9cAYiqb72w2Qf/ctsr6y1yvdD7XgJdAvqLp2ThtCnLKlg5gWBciBMQ+Qs0nnec3POZickdicShcTfvcakJAPNvrUxmH4Xfc4MILi3jA85fp22qZkry1D8v8zc12VG73r6I4OVKqRsArgbZJCJe4lRhufyjr4a1E60dDYwQ6NfAi0r005OT2ZfjevQQBgeTtZJWRtSO2NK5Zquy1CNKsalclkOLxKjla4mU/ucGNRGgr+4KRXUVwA2wsJTCxmofHzHlVvN/OoCMgthNR57PSu4pncKrsdjeIbe51oUIIMLhcNDT0PYtRW4txzLdVP08iiANLcfyoAkRJVCcm5Pq9NDJSDn/fpCYFGECIs8L9PMZR57Jjsqe8fE98VrN3q5ZAFEscPl+y8sfWrTWYAFKRBwRJIU4Co3tovWzOSf3Uux46iBwJLXQfi9rsM2qpfOiTysbf6vIwAIATgp1m4A4RXYL9QuZrPOklc3sGBw8NLgQrNxCAxDBYFc4EAr+g1Lc6PJag2eDTgOYEGBAtH5BIC/qXPbp7ET2QCJxeKRW96UsGgDzWtLWc53f6/0npVRXTVg5QU6IUYEcEsF2aLyATPr1XG7kUCwWG1tM0C0IAAFYbUvX/m+A/9OVJy0VVyAyEBkSyA44eEGUtR2To/tPnDh8tFajVgPgNAXCnV2h+tDjIC5TSik3BBCATIrGAChviMhzuaz+w+Q4DiyUqNUAeIba2no/Ll71d4qMVGUFAvmolWlAjhJ4Qevc0znN7cP9uw8BSBvEFjiAAHwt3b3fUFSfUUrZFYpa8+41QcF+LfJMTvM3nHR2DQ3tOmaQmp3sBfAbJidy+tsNtnW1iKybDytYHM9JhuARaLymtfNijpPbcmPOvkTicNxgtLgtIKaW6e6yLH6TSoXKYeVECjlyYwT6HNHPQ+P5nJN7OXZ87wHjWg2Af61QaElrqOMRglsKJSdm71aFwKSIDIhInwif047zTGYCuxOJ3UdqqGqqAbBainasXGfZ3h+QuHgmV/zOWE4K1uwQIG+KxrOOzmy39fiR48ePx0zUagCcrVRzZ++tHkt9A+SqMxMWpqBzRCRJYp+j5Tlx5MWcxZfib8cOAgMpl1dHMADWAoSh9t51fpufoVI3QlA8mIUyBEEfoP+QzentQr07dnTfMWPlDIDzJatl6cplklPttqWUhsSzydzhWGzfqHnsRkZGRXdlusDIAGhkADQyMgAaGQCNjAyARgZAIyMDoJEB0MjIAGhkADQyMgAaGQCNjAyARgZAI6Ny6N8DAAD//01uX5pcSx78AAAAAElFTkSuQmCC;" vertex="1" parent="1">
          <mxGeometry x="938" y="870" width="70" height="70" as="geometry" />
        </mxCell>
        <mxCell id="wKNWFdTeelvIMUXnJIF_-134" value="" style="endArrow=classic;html=1;rounded=0;fontColor=#FF3399;" edge="1" parent="1">
          <mxGeometry width="50" height="50" relative="1" as="geometry">
            <mxPoint x="896" y="865" as="sourcePoint" />
            <mxPoint x="1040" y="865" as="targetPoint" />
          </mxGeometry>
        </mxCell>
        <mxCell id="wKNWFdTeelvIMUXnJIF_-135" value="" style="endArrow=classic;html=1;rounded=0;fontColor=#FF3399;" edge="1" parent="1">
          <mxGeometry width="50" height="50" relative="1" as="geometry">
            <mxPoint x="1040" y="945" as="sourcePoint" />
            <mxPoint x="896" y="945" as="targetPoint" />
          </mxGeometry>
        </mxCell>
        <mxCell id="wKNWFdTeelvIMUXnJIF_-138" value="" style="endArrow=classic;html=1;rounded=0;fontColor=#D4E1F5;entryX=0.019;entryY=0.6;entryDx=0;entryDy=0;entryPerimeter=0;" edge="1" parent="1">
          <mxGeometry width="50" height="50" relative="1" as="geometry">
            <mxPoint x="1110" y="850" as="sourcePoint" />
            <mxPoint x="1110.04" y="810.0000000000002" as="targetPoint" />
            <Array as="points">
              <mxPoint x="1110" y="850" />
            </Array>
          </mxGeometry>
        </mxCell>
        <mxCell id="wKNWFdTeelvIMUXnJIF_-139" value="" style="endArrow=classic;rounded=0;fontColor=#D4E1F5;entryX=0.019;entryY=0.6;entryDx=0;entryDy=0;entryPerimeter=0;verticalAlign=bottom;" edge="1" parent="1">
          <mxGeometry width="50" height="50" relative="1" as="geometry">
            <mxPoint x="1070.04" y="810.0000000000002" as="sourcePoint" />
            <mxPoint x="1070.0000000000005" y="850" as="targetPoint" />
            <Array as="points">
              <mxPoint x="1070" y="850" />
            </Array>
          </mxGeometry>
        </mxCell>
        <mxCell id="wKNWFdTeelvIMUXnJIF_-140" value="&lt;font color=&quot;#99ccff&quot;&gt;Front-End&lt;/font&gt;" style="text;strokeColor=none;fillColor=none;html=1;fontSize=24;fontStyle=1;verticalAlign=middle;align=center;fontColor=#000000;" vertex="1" parent="1">
          <mxGeometry x="341" y="607" width="100" height="40" as="geometry" />
        </mxCell>
        <mxCell id="wKNWFdTeelvIMUXnJIF_-143" value="&lt;font&gt;Back-End&lt;/font&gt;" style="text;strokeColor=none;fillColor=none;html=1;fontSize=24;fontStyle=1;verticalAlign=middle;align=center;fontColor=#9933FF;" vertex="1" parent="1">
          <mxGeometry x="1042" y="606" width="100" height="40" as="geometry" />
        </mxCell>
        <mxCell id="wKNWFdTeelvIMUXnJIF_-145" value="&lt;span style=&quot;font-weight: 600&quot; class=&quot;notion-enable-hover&quot;&gt;- 데이터베이스와 관련된 로직 처리&lt;/span&gt;" style="text;html=1;align=center;verticalAlign=middle;resizable=0;points=[];autosize=1;strokeColor=none;fillColor=none;" vertex="1" parent="1">
          <mxGeometry x="693" y="865" width="180" height="20" as="geometry" />
        </mxCell>
        <mxCell id="wKNWFdTeelvIMUXnJIF_-149" value="-회원가입 시 이미 가입한 유저 조회" style="text;html=1;align=center;verticalAlign=middle;resizable=0;points=[];autosize=1;strokeColor=none;fillColor=none;" vertex="1" parent="1">
          <mxGeometry x="687" y="906" width="180" height="20" as="geometry" />
        </mxCell>
        <mxCell id="wKNWFdTeelvIMUXnJIF_-150" value="- 회원가입 성공 후 유저 생성" style="text;html=1;align=center;verticalAlign=middle;resizable=0;points=[];autosize=1;strokeColor=none;fillColor=none;" vertex="1" parent="1">
          <mxGeometry x="702" y="921" width="150" height="20" as="geometry" />
        </mxCell>
        <mxCell id="wKNWFdTeelvIMUXnJIF_-152" value="- 로그인 시 이메일로 유저 조회" style="text;html=1;align=center;verticalAlign=middle;resizable=0;points=[];autosize=1;strokeColor=none;fillColor=none;" vertex="1" parent="1">
          <mxGeometry x="697" y="957" width="160" height="20" as="geometry" />
        </mxCell>
      </root>
    </mxGraphModel>
  </diagram>
</mxfile>
